PathFileType	4	(X/Y/Z)	/Users/niels/Desktop/University/Third Semester/Perception and Action/Exam/Gymnastics Motion Tracking/Code for Gym Tracking/Analyzed Data/Webcam_Backflip/id5_1_trajectory_Sports2D/id5_1_trajectory_Sports2D_px_person00.trc
DataRate	CameraRate	NumFrames	NumMarkers	Units	OrigDataRate	OrigDataStartFrame	OrigNumFrames
29.76190476190476	29.76190476190476	10	22	m	29.76190476190476	78	126
Frame#	Time	Hip			RHip			RKnee			RAnkle			RBigToe			RSmallToe			RHeel			LHip			LKnee			LAnkle			LBigToe			LSmallToe			LHeel			Neck			Head			Nose			RShoulder			RElbow			RWrist			LShoulder			LElbow			LWrist		
		X1	Y1	Z1	X2	Y2	Z2	X3	Y3	Z3	X4	Y4	Z4	X5	Y5	Z5	X6	Y6	Z6	X7	Y7	Z7	X8	Y8	Z8	X9	Y9	Z9	X10	Y10	Z10	X11	Y11	Z11	X12	Y12	Z12	X13	Y13	Z13	X14	Y14	Z14	X15	Y15	Z15	X16	Y16	Z16	X17	Y17	Z17	X18	Y18	Z18	X19	Y19	Z19	X20	Y20	Z20	X21	Y21	Z21	X22	Y22	Z22
78	2.6208000000000005	0.8550977833912631	-0.555702044712664	0.0	0.8033840292657523	-0.5545183382160231	0.0	0.7721197565985461	-0.762672348141127	0.0	0.7937945400701341	-0.9135315005739645	0.0	0.7684075032842467	-0.9947936583579595	0.0	0.7487718262399095	-0.9780647561998013	0.0	0.8078894497770223	-0.9266982829919979	0.0	0.9077842773506355	-0.5610759787388353	0.0	0.9170650809108732	-0.7632186053149292	0.0	0.9089182023577921	-0.957022900275783	0.0	0.9207843629602208	-1.020747961721832	0.0	0.9475336477779336	-1.01192374439576	0.0	0.8982572377977869	-0.9806565432123341	0.0	0.8788770642536695	-0.24089767642428908	0.0	0.8913041610477801	-0.11013576694788148	0.0	0.8792483471692919	-0.18504038644981177	0.0	0.7826065138673325	-0.286643023736748	0.0	0.7477383915471103	-0.4231032381467932	0.0	0.7211223360541177	-0.5454790806599497	0.0	0.965739215948012	-0.30750950894409274	0.0	0.9887573099264483	-0.4463293028641209	0.0	1.0162839731589475	-0.5610336502598976	0.0
79	2.6544000000000003	0.8559016725534759	-0.5557957276285121	0.0	0.803959330026008	-0.5551335076788962	0.0	0.7761158982086473	-0.7644335984240206	0.0	0.7941291656699675	-0.9351346700217392	0.0	0.7650530879774373	-1.0137509805404308	0.0	0.7459290436413605	-0.9986966105875719	0.0	0.8085904479892692	-0.9527359831398762	0.0	0.9093744637575154	-0.561058737489766	0.0	0.9172878419395872	-0.7645878311594929	0.0	0.9089380585436406	-0.9574548064527497	0.0	0.921953135561701	-1.0211492595957787	0.0	0.9478150049891784	-1.0121183330546157	0.0	0.8982328523791304	-0.9821212042044898	0.0	0.8778979666096111	-0.2370411061888627	0.0	0.8895945575036261	-0.10448086941589446	0.0	0.8772504921852023	-0.1807086726020785	0.0	0.7814376175296742	-0.2845095303811185	0.0	0.7498623624924957	-0.42294265071760867	0.0	0.7235730684884668	-0.5470617509675411	0.0	0.9666727604558114	-0.3032922000165927	0.0	0.9922414826920095	-0.4432705792741802	0.0	1.0216949439903613	-0.5579774431453212	0.0
80	2.6880000000000006	0.8566096885196965	-0.5570870292191892	0.0	0.8043696741562432	-0.5569944703442339	0.0	0.7808221008018384	-0.7678554074825468	0.0	0.7938854485921009	-0.9572744273566264	0.0	0.7621171623554879	-1.032515766918138	0.0	0.7431170775011225	-1.0189775142255362	0.0	0.8083483500144387	-0.9785934919027978	0.0	0.9106215814359389	-0.5621443772492969	0.0	0.9172925116227006	-0.766464008977897	0.0	0.9089473027368181	-0.9579204098163598	0.0	0.9228333418266598	-1.0218519070900995	0.0	0.9481304268235916	-1.0123689719577942	0.0	0.8984127971817358	-0.983368631064085	0.0	0.8758448971050093	-0.23404912707891612	0.0	0.886394660798657	-0.0994247268000908	0.0	0.8741566206267888	-0.17709262325458752	0.0	0.7793367628807636	-0.2834439999611033	0.0	0.7508300954148535	-0.423921097458054	0.0	0.724907819692762	-0.5494330406476249	0.0	0.9663130776200777	-0.2996632311038805	0.0	0.9946658119190933	-0.44082591842930136	0.0	1.0257392929152194	-0.5557809532869448	0.0
81	2.7216000000000005	0.8570175635820905	-0.5594612728124734	0.0	0.8044680690715147	-0.5599378536804346	0.0	0.7857891892334066	-0.7727743852458916	0.0	0.7938210675130968	-0.9780083528238633	0.0	0.7609148997609859	-1.0496314773576338	0.0	0.7416510327892213	-1.0371801542778973	0.0	0.8078796317456336	-1.0019211662011744	0.0	0.9113584228793176	-0.56416841768405	0.0	0.9171592408854304	-0.7689840437854021	0.0	0.9089643215985316	-0.9582124961186589	0.0	0.9232959476277264	-1.0227334561306245	0.0	0.9483549607255151	-1.0126518556309905	0.0	0.8988714765635104	-0.9839072855475313	0.0	0.8727719063745247	-0.23191586111995843	0.0	0.8817100417826449	-0.09509023297430255	0.0	0.8701215884028054	-0.1741098074178902	0.0	0.7762456026103146	-0.2834834250930466	0.0	0.7505266242116023	-0.4259794368390873	0.0	0.7247834362767329	-0.5526839092529988	0.0	0.9646666648915843	-0.2969623776452714	0.0	0.9958564575017964	-0.4391671120966611	0.0	1.0283092185906093	-0.5547253593895688	0.0
82	2.7552000000000003	0.8568206638789929	-0.562610244549972	0.0	0.8040105428308179	-0.5636524039544398	0.0	0.7904078369702896	-0.7786435995388371	0.0	0.7946526315210493	-0.9960575074311456	0.0	0.7628516671770769	-1.0640252898568812	0.0	0.7428230473969366	-1.0522009396032903	0.0	0.807967697985335	-1.0213663323461049	0.0	0.9113703546359382	-0.5668263618718331	0.0	0.916964285252833	-0.7721332730428753	0.0	0.9090634883477432	-0.9580586398172479	0.0	0.9233631791858491	-1.0236967352990731	0.0	0.9483969890168794	-1.012933596808346	0.0	0.8997078777127542	-0.983257833427991	0.0	0.8686538299864077	-0.23042094152160447	0.0	0.8756285528651259	-0.09150139885133537	0.0	0.865219467606685	-0.17155963322826398	0.0	0.7720517742184904	-0.28454913025732986	0.0	0.7488816704040275	-0.42891704262627595	0.0	0.7230019527483547	-0.5568267245400939	0.0	0.9618772235395785	-0.2952777887687713	0.0	0.9956117296243436	-0.4382817210172172	0.0	1.0293483011952784	-0.5550050616478523	0.0
83	2.7888000000000006	0.855709095012301	-0.5660516530936298	0.0	0.8026907451789905	-0.5676861959472786	0.0	0.7940118703242899	-0.7847980447491413	0.0	0.7967089082910186	-1.010822094457405	0.0	0.7689402328481382	-1.0751209426640262	0.0	0.7473804787899758	-1.0635950302006913	0.0	0.8090417214523763	-1.0364684660498449	0.0	0.9104476793816813	-0.5697275661276148	0.0	0.9167879686073132	-0.7758024170427361	0.0	0.9093533960082918	-0.9571790686597857	0.0	0.9230893767425059	-1.0246942404268646	0.0	0.9482585865259844	-1.0131749198908382	0.0	0.9009685051652031	-0.9810839202174038	0.0	0.8634071246084823	-0.22924283291102326	0.0	0.8681817534945951	-0.0885384946314181	0.0	0.8593033983279126	-0.16921442786325458	0.0	0.76666727350929	-0.28639032393553376	0.0	0.7458490566588795	-0.43245882257390267	0.0	0.7195456297562952	-0.5618040510995295	0.0	0.9581647038015	-0.29431028072719334	0.0	0.9937962917301785	-0.43798541130769564	0.0	1.0287904954102973	-0.5566066743549656	0.0
84	2.8224000000000005	0.8534628033491127	-0.5692547953367701	0.0	0.800237125805628	-0.5715577309327837	0.0	0.7960130039121079	-0.7906719285069526	0.0	0.799683410866293	-1.0221965166657516	0.0	0.7789090450327483	-1.0827893432300482	0.0	0.7549628495162526	-1.0714600837449766	0.0	0.8109385967510883	-1.0474270606132916	0.0	0.9084499665012722	-0.5724837331466696	0.0	0.9167041274924319	-0.7798792567231837	0.0	0.9099097564275317	-0.9553258588183016	0.0	0.9225083062166781	-1.0256847705550047	0.0	0.9480278324957064	-1.0133455341218072	0.0	0.902569970530908	-0.9772136412203195	0.0	0.8569591512967996	-0.2280391368991928	0.0	0.8593144208036976	-0.08589399007439855	0.0	0.8521013467323286	-0.16688647993892744	0.0	0.7601435422392147	-0.2885717999492631	0.0	0.7414415426780737	-0.43627546034463466	0.0	0.7145091936692635	-0.5674873720839129	0.0	0.9537172624320133	-0.29344471539317796	0.0	0.9903793505039322	-0.4379395791540225	0.0	1.0264916548855247	-0.5592258023116816	0.0
85	2.8560000000000003	0.850030530311391	-0.5718451258755931	0.0	0.7965262915074979	-0.574910304218243	0.0	0.7960207118669201	-0.7959655273072278	0.0	0.8027693721661624	-1.030434124733362	0.0	0.790853810628766	-1.087315005840669	0.0	0.7640283378166148	-1.0763285100531532	0.0	0.8131124036333766	-1.0549415602385455	0.0	0.9053517553138113	-0.57482112675156	0.0	0.9167933206984323	-0.7843740772616007	0.0	0.9107051898695429	-0.9523977052146735	0.0	0.9216971885788326	-1.0266416844486768	0.0	0.9478588686004396	-1.0134462348661966	0.0	0.9042753215155339	-0.971686374951485	0.0	0.849342495510501	-0.22652833096801767	0.0	0.8490443567546677	-0.08315545272945768	0.0	0.8435334737557951	-0.16443089021108132	0.0	0.7526787771426212	-0.2905945174052305	0.0	0.735762776044196	-0.4399889388583666	0.0	0.7080496880927063	-0.5735745855001695	0.0	0.9486505292710141	-0.2920025777475697	0.0	0.9854340398055409	-0.4377211844868061	0.0	1.0222263103085345	-0.5622777423558541	0.0
86	2.8896000000000006	0.8455755022419367	-0.5737252139956719	0.0	0.7916635489106111	-0.5776312172427038	0.0	0.7940101014993514	-0.8007324738010902	0.0	0.805191950232474	-1.036041333260047	0.0	0.8023308552599442	-1.0893640294589584	0.0	0.7726871040336697	-1.079018437323534	0.0	0.815100709667663	-1.0599672719305648	0.0	0.9012798925464879	-0.5766547901900269	0.0	0.9171571401795572	-0.7894139984833175	0.0	0.9115484425068372	-0.9486666444193398	0.0	0.9207917260646702	-1.0276633841395295	0.0	0.947892988458005	-1.013583898124972	0.0	0.9057007799568553	-0.9649743141525169	0.0	0.8407713463483663	-0.2245662438683019	0.0	0.837615287742735	-0.07995050382073673	0.0	0.8339011052965967	-0.16167678682892797	0.0	0.7445319834447418	-0.29207764005698467	0.0	0.7289930832237094	-0.44325394535977614	0.0	0.7003572346740803	-0.5795607846155792	0.0	0.9430610231281932	-0.2895383048454151	0.0	0.9791648005284348	-0.43697406055255594	0.0	1.015784005526062	-0.5650805723179686	0.0
87	2.9232000000000005	0.8404399343238441	-0.574980718397634	0.0	0.7859786351655004	-0.5798021984603983	0.0	0.7904658444050574	-0.8052150996369826	0.0	0.8066421605931264	-1.0396236328947366	0.0	0.8117484057122997	-1.0897906879219812	0.0	0.7796595562583417	-1.0803615806591442	0.0	0.8167735347178988	-1.063395619949161	0.0	0.8965343449432094	-0.5780098944068572	0.0	0.9178541605392607	-0.7949726735782733	0.0	0.91206605590907	-0.9449666159584298	0.0	0.9198740559413933	-1.029082038905104	0.0	0.9481032446889506	-1.0141075666115682	0.0	0.9063566123246651	-0.9582381142533074	0.0	0.8316340761123491	-0.2221019333018079	0.0	0.8255140432350869	-0.07604860358580909	0.0	0.8237724444580138	-0.15840849879369737	0.0	0.7359730071457454	-0.2928154233691531	0.0	0.7213466963841886	-0.4458717903783516	0.0	0.6916492438686569	-0.5849166072920978	0.0	0.9370627217246845	-0.28601436942533126	0.0	0.9719287217623013	-0.4355703171492786	0.0	1.007128411361352	-0.5671390592311341	0.0
